<svg xmlns="http://www.w3.org/2000/svg" xmlns:xlink="http://www.w3.org/1999/xlink" width="500" zoomAndPan="magnify" viewBox="0 0 375 374.999991" height="500" preserveAspectRatio="xMidYMid meet" version="1.0"><defs><g><g id="id1"/><g id="id2"/><g id="id3"/><g id="id4"/><g id="id5"/><g id="id6"/><g id="id7"/><g id="id8"/><g id="id9"/><g id="id10"/><g id="id11"/><g id="id12"/><g id="id13"/><g id="id14"/><g id="id15"/><g id="id16"/><g id="id17"/><g id="id18"/><g id="id19"/><g id="id20"/><g id="id21"/><g id="id22"/><g id="id23"/><g id="id24"/></g><clipPath id="id25"><path d="M 284.722656 181.542969 L 300.699219 181.542969 L 300.699219 185.972656 L 284.722656 185.972656 Z M 284.722656 181.542969 " clip-rule="nonzero"/></clipPath><clipPath id="id26"><path d="M 278.527344 186.78125 L 300.332031 186.78125 L 300.332031 197.917969 L 278.527344 197.917969 Z M 278.527344 186.78125 " clip-rule="nonzero"/></clipPath><clipPath id="id27"><path d="M 263.960938 193 L 273 193 L 273 197 L 263.960938 197 Z M 263.960938 193 " clip-rule="nonzero"/></clipPath><clipPath id="id28"><path d="M 71.867188 183.585938 L 88 183.585938 L 88 191 L 71.867188 191 Z M 71.867188 183.585938 " clip-rule="nonzero"/></clipPath><clipPath id="id29"><path d="M 90 183.585938 L 103 183.585938 L 103 187 L 90 187 Z M 90 183.585938 " clip-rule="nonzero"/></clipPath><clipPath id="id30"><path d="M 95 188 L 99 188 L 99 195.585938 L 95 195.585938 Z M 95 188 " clip-rule="nonzero"/></clipPath><clipPath id="id31"><path d="M 99 192 L 113.117188 192 L 113.117188 195 L 99 195 Z M 99 192 " clip-rule="nonzero"/></clipPath><clipPath id="id32"><path d="M 96 192 L 100 192 L 100 195.585938 L 96 195.585938 Z M 96 192 " clip-rule="nonzero"/></clipPath><clipPath id="id33"><path d="M 105 194 L 111 194 L 111 195.585938 L 105 195.585938 Z M 105 194 " clip-rule="nonzero"/></clipPath><clipPath id="id34"><path d="M 131.203125 131.203125 L 243.703125 131.203125 L 243.703125 243.703125 L 131.203125 243.703125 Z M 131.203125 131.203125 " clip-rule="nonzero"/></clipPath></defs><path fill="rgb(14.509583%, 14.509583%, 14.509583%)" d="M 187.335938 64.335938 C 119.40625 64.335938 64.335938 119.40625 64.335938 187.335938 C 64.335938 255.265625 119.40625 310.335938 187.335938 310.335938 C 255.265625 310.335938 310.335938 255.265625 310.335938 187.335938 C 310.335938 119.40625 255.265625 64.335938 187.335938 64.335938 " fill-opacity="1" fill-rule="nonzero"/><path fill="rgb(98.81897%, 63.919067%, 6.669617%)" d="M 187.367188 69.242188 C 122.128906 69.242188 69.242188 122.128906 69.242188 187.367188 C 69.242188 252.605469 122.128906 305.492188 187.367188 305.492188 C 252.605469 305.492188 305.492188 252.605469 305.492188 187.367188 C 305.492188 122.128906 252.605469 69.242188 187.367188 69.242188 " fill-opacity="1" fill-rule="nonzero"/><path fill="rgb(99.609375%, 100%, 99.609375%)" d="M 187.570312 74.320312 C 125.023438 74.320312 74.320312 125.023438 74.320312 187.570312 C 74.320312 250.117188 125.023438 300.820312 187.570312 300.820312 C 250.117188 300.820312 300.820312 250.117188 300.820312 187.570312 C 300.820312 125.023438 250.117188 74.320312 187.570312 74.320312 " fill-opacity="1" fill-rule="nonzero"/><path fill="rgb(98.81897%, 63.919067%, 6.669617%)" d="M 71.878906 170.34375 L 302.859375 170.34375 L 302.859375 204.84375 L 71.878906 204.84375 L 71.878906 170.34375 " fill-opacity="1" fill-rule="nonzero"/><g fill="rgb(14.509583%, 14.509583%, 14.509583%)" fill-opacity="1"><g transform="translate(140.105066, 119.851139)"><g><path d="M 1.78125 -1.015625 L -7.546875 -17.484375 L -3.09375 -20 L 4.203125 -7.125 L 10.546875 -10.71875 L 12.578125 -7.125 Z M 1.78125 -1.015625 "/></g></g></g><g fill="rgb(14.509583%, 14.509583%, 14.509583%)" fill-opacity="1"><g transform="translate(151.621083, 112.790238)"><g><path d="M 15.765625 -15.203125 C 16.765625 -12.191406 16.785156 -9.648438 15.828125 -7.578125 C 14.867188 -5.515625 12.957031 -4.007812 10.09375 -3.0625 C 7.269531 -2.125 4.847656 -2.195312 2.828125 -3.28125 C 0.804688 -4.375 -0.703125 -6.429688 -1.703125 -9.453125 C -2.691406 -12.441406 -2.695312 -14.972656 -1.71875 -17.046875 C -0.75 -19.117188 1.160156 -20.628906 4.015625 -21.578125 C 6.867188 -22.515625 9.289062 -22.445312 11.28125 -21.375 C 13.269531 -20.300781 14.765625 -18.242188 15.765625 -15.203125 Z M 3.40625 -11.109375 C 4.5625 -7.640625 6.347656 -6.304688 8.765625 -7.109375 C 10.003906 -7.515625 10.773438 -8.238281 11.078125 -9.28125 C 11.390625 -10.320312 11.25 -11.734375 10.65625 -13.515625 C 10.0625 -15.316406 9.320312 -16.546875 8.4375 -17.203125 C 7.5625 -17.859375 6.523438 -17.988281 5.328125 -17.59375 C 2.890625 -16.78125 2.25 -14.617188 3.40625 -11.109375 Z M 3.40625 -11.109375 "/></g></g></g><g fill="rgb(14.509583%, 14.509583%, 14.509583%)" fill-opacity="1"><g transform="translate(169.713424, 106.794426)"><g><path d="M 8.703125 -16.09375 C 7.492188 -15.957031 6.601562 -15.351562 6.03125 -14.28125 C 5.46875 -13.21875 5.289062 -11.816406 5.5 -10.078125 C 5.90625 -6.453125 7.488281 -4.796875 10.25 -5.109375 C 11.070312 -5.210938 11.859375 -5.425781 12.609375 -5.75 C 13.367188 -6.070312 14.128906 -6.4375 14.890625 -6.84375 L 15.375 -2.5625 C 13.882812 -1.675781 12.148438 -1.117188 10.171875 -0.890625 C 7.335938 -0.566406 5.066406 -1.144531 3.359375 -2.625 C 1.648438 -4.101562 0.613281 -6.394531 0.25 -9.5 C 0.03125 -11.445312 0.207031 -13.203125 0.78125 -14.765625 C 1.351562 -16.328125 2.28125 -17.582031 3.5625 -18.53125 C 4.84375 -19.476562 6.414062 -20.0625 8.28125 -20.28125 C 10.300781 -20.507812 12.289062 -20.285156 14.25 -19.609375 L 13.15625 -15.4375 C 12.425781 -15.675781 11.695312 -15.867188 10.96875 -16.015625 C 10.25 -16.160156 9.492188 -16.1875 8.703125 -16.09375 Z M 8.703125 -16.09375 "/></g></g></g><g fill="rgb(14.509583%, 14.509583%, 14.509583%)" fill-opacity="1"><g transform="translate(185.45646, 105.216136)"><g><path d="M 6.546875 -18.796875 L 5.875 -11.984375 L 2.328125 -12.046875 L 1.9375 -18.890625 Z M 6.546875 -18.796875 "/></g></g></g><g fill="rgb(14.509583%, 14.509583%, 14.509583%)" fill-opacity="1"><g transform="translate(191.768039, 104.818186)"><g><path d="M 13.46875 2.234375 L 13.140625 -1.421875 L 7.0625 -2.421875 L 5.546875 0.921875 L 0 0 L 9.203125 -17.734375 L 15.9375 -16.625 L 18.984375 3.140625 Z M 12.78125 -5.734375 L 12.46875 -8.9375 C 12.394531 -9.65625 12.316406 -10.570312 12.234375 -11.6875 C 12.148438 -12.8125 12.101562 -13.613281 12.09375 -14.09375 C 11.9375 -13.675781 11.660156 -12.988281 11.265625 -12.03125 C 10.878906 -11.082031 10.054688 -9.203125 8.796875 -6.390625 Z M 12.78125 -5.734375 "/></g></g></g><g fill="rgb(14.509583%, 14.509583%, 14.509583%)" fill-opacity="1"><g transform="translate(208.902682, 107.65889)"><g><path d="M 1.921875 0.703125 L 8.40625 -17.078125 L 13.203125 -15.328125 L 8.140625 -1.421875 L 15 1.078125 L 13.578125 4.953125 Z M 1.921875 0.703125 "/></g></g></g><g fill="rgb(14.509583%, 14.509583%, 14.509583%)" fill-opacity="1"><g transform="translate(221.876765, 112.246168)"><g><path d="M 1.78125 1.015625 L 11.109375 -15.453125 L 15.5625 -12.9375 L 8.265625 -0.0625 L 14.609375 3.53125 L 12.578125 7.125 Z M 1.78125 1.015625 "/></g></g></g><g fill="rgb(14.509583%, 14.509583%, 14.509583%)" fill-opacity="1"><g transform="translate(99.212743, 235.922059)"><g><path d="M 0.703125 1.09375 L 10.828125 -5.421875 L 12.59375 -2.671875 L 4.671875 2.421875 L 7.1875 6.3125 L 4.984375 7.734375 Z M 0.703125 1.09375 "/></g></g></g><g fill="rgb(14.509583%, 14.509583%, 14.509583%)" fill-opacity="1"><g transform="translate(104.908856, 244.888536)"><g><path d="M 12.6875 5.796875 C 11.132812 7.097656 9.632812 7.703125 8.1875 7.609375 C 6.738281 7.523438 5.398438 6.742188 4.171875 5.265625 C 2.960938 3.816406 2.441406 2.363281 2.609375 0.90625 C 2.773438 -0.550781 3.640625 -1.925781 5.203125 -3.21875 C 6.742188 -4.5 8.238281 -5.09375 9.6875 -5 C 11.144531 -4.90625 12.488281 -4.125 13.71875 -2.65625 C 14.945312 -1.175781 15.472656 0.273438 15.296875 1.703125 C 15.117188 3.140625 14.25 4.503906 12.6875 5.796875 Z M 7.375 -0.578125 C 5.582031 0.921875 5.207031 2.289062 6.25 3.53125 C 6.78125 4.164062 7.390625 4.453125 8.078125 4.390625 C 8.765625 4.335938 9.566406 3.925781 10.484375 3.15625 C 11.410156 2.394531 11.960938 1.671875 12.140625 0.984375 C 12.328125 0.304688 12.164062 -0.335938 11.65625 -0.953125 C 10.601562 -2.203125 9.175781 -2.078125 7.375 -0.578125 Z M 7.375 -0.578125 "/></g></g></g><g fill="rgb(14.509583%, 14.509583%, 14.509583%)" fill-opacity="1"><g transform="translate(114.14629, 255.772382)"><g><path d="M 11.390625 -2.46875 C 10.816406 -3 10.15625 -3.175781 9.40625 -3 C 8.65625 -2.820312 7.898438 -2.328125 7.140625 -1.515625 C 5.566406 0.179688 5.425781 1.628906 6.71875 2.828125 C 7.101562 3.191406 7.53125 3.488281 8 3.71875 C 8.46875 3.945312 8.957031 4.160156 9.46875 4.359375 L 7.609375 6.375 C 6.566406 6.007812 5.582031 5.398438 4.65625 4.546875 C 3.320312 3.304688 2.65625 1.96875 2.65625 0.53125 C 2.664062 -0.90625 3.347656 -2.351562 4.703125 -3.8125 C 5.546875 -4.726562 6.457031 -5.367188 7.4375 -5.734375 C 8.425781 -6.097656 9.414062 -6.164062 10.40625 -5.9375 C 11.40625 -5.71875 12.34375 -5.203125 13.21875 -4.390625 C 14.175781 -3.503906 14.898438 -2.457031 15.390625 -1.25 L 12.921875 -0.03125 C 12.722656 -0.488281 12.507812 -0.921875 12.28125 -1.328125 C 12.0625 -1.734375 11.765625 -2.113281 11.390625 -2.46875 Z M 11.390625 -2.46875 "/></g></g></g><g fill="rgb(14.509583%, 14.509583%, 14.509583%)" fill-opacity="1"><g transform="translate(122.760487, 263.754515)"><g><path d="M 7.046875 5.09375 L 7.875 2.90625 L 4.703125 0.625 L 2.90625 2.09375 L 0 0 L 10.265625 -7.484375 L 13.78125 -4.953125 L 9.921875 7.171875 Z M 8.90625 0.359375 L 9.640625 -1.546875 C 9.796875 -1.972656 10.007812 -2.519531 10.28125 -3.1875 C 10.550781 -3.851562 10.753906 -4.320312 10.890625 -4.59375 C 10.679688 -4.394531 10.328125 -4.082031 9.828125 -3.65625 C 9.335938 -3.226562 8.335938 -2.390625 6.828125 -1.140625 Z M 8.90625 0.359375 "/></g></g></g><g fill="rgb(14.509583%, 14.509583%, 14.509583%)" fill-opacity="1"><g transform="translate(133.364422, 271.28464)"><g><path d="M 5.765625 3.21875 L 2.9375 1.640625 L 7.515625 -6.5625 L 4.953125 -8 L 6.25 -10.3125 L 14.21875 -5.859375 L 12.921875 -3.546875 L 10.34375 -4.984375 Z M 5.765625 3.21875 "/></g></g></g><g fill="rgb(14.509583%, 14.509583%, 14.509583%)" fill-opacity="1"><g transform="translate(142.587557, 276.307514)"><g><path d="M 1.1875 0.53125 L 6.15625 -10.4375 L 9.140625 -9.078125 L 4.171875 1.890625 Z M 1.1875 0.53125 "/></g></g></g><g fill="rgb(14.509583%, 14.509583%, 14.509583%)" fill-opacity="1"><g transform="translate(148.47818, 279.153327)"><g><path d="M 13.84375 -1.734375 C 13.195312 0.191406 12.234375 1.492188 10.953125 2.171875 C 9.671875 2.859375 8.125 2.898438 6.3125 2.296875 C 4.507812 1.691406 3.300781 0.726562 2.6875 -0.59375 C 2.070312 -1.914062 2.09375 -3.539062 2.75 -5.46875 C 3.382812 -7.363281 4.34375 -8.648438 5.625 -9.328125 C 6.90625 -10.015625 8.457031 -10.054688 10.28125 -9.453125 C 12.09375 -8.835938 13.300781 -7.878906 13.90625 -6.578125 C 14.507812 -5.273438 14.488281 -3.660156 13.84375 -1.734375 Z M 5.984375 -4.375 C 5.242188 -2.164062 5.644531 -0.800781 7.1875 -0.28125 C 7.96875 -0.0195312 8.632812 -0.09375 9.1875 -0.5 C 9.75 -0.914062 10.21875 -1.691406 10.59375 -2.828125 C 10.976562 -3.960938 11.070312 -4.863281 10.875 -5.53125 C 10.675781 -6.195312 10.195312 -6.660156 9.4375 -6.921875 C 7.882812 -7.441406 6.734375 -6.59375 5.984375 -4.375 Z M 5.984375 -4.375 "/></g></g></g><g fill="rgb(14.509583%, 14.509583%, 14.509583%)" fill-opacity="1"><g transform="translate(162.136456, 283.692818)"><g><path d="M 12.5625 2.28125 L 8.359375 1.515625 L 5.5625 -7.609375 L 5.484375 -7.625 C 5.347656 -6.289062 5.21875 -5.28125 5.09375 -4.59375 L 4.125 0.75 L 1.28125 0.234375 L 3.421875 -11.625 L 7.59375 -10.875 L 10.4375 -1.84375 L 10.484375 -1.828125 C 10.628906 -3.035156 10.765625 -4 10.890625 -4.71875 L 11.859375 -10.09375 L 14.703125 -9.578125 Z M 12.5625 2.28125 "/></g></g></g><g fill="rgb(14.509583%, 14.509583%, 14.509583%)" fill-opacity="1"><g transform="translate(181.560766, 286.60304)"><g><path d="M 8.6875 -0.046875 L 8.078125 -2.296875 L 4.171875 -2.265625 L 3.578125 -0.015625 L 0 0 L 3.875 -12.109375 L 8.203125 -12.140625 L 12.25 -0.0625 Z M 7.390625 -4.96875 L 6.875 -6.9375 C 6.738281 -7.375 6.582031 -7.941406 6.40625 -8.640625 C 6.238281 -9.335938 6.125 -9.835938 6.0625 -10.140625 C 6.019531 -9.859375 5.925781 -9.394531 5.78125 -8.75 C 5.632812 -8.113281 5.316406 -6.847656 4.828125 -4.953125 Z M 7.390625 -4.96875 "/></g></g></g><g fill="rgb(14.509583%, 14.509583%, 14.509583%)" fill-opacity="1"><g transform="translate(194.559474, 286.419131)"><g><path d="M 1.28125 -0.15625 L -0.171875 -12.109375 L 3.078125 -12.5 L 4.21875 -3.15625 L 8.828125 -3.71875 L 9.140625 -1.109375 Z M 1.28125 -0.15625 "/></g></g></g><g fill="rgb(14.509583%, 14.509583%, 14.509583%)" fill-opacity="1"><g transform="translate(204.966182, 285.113692)"><g><path d="M 1.265625 -0.296875 L -1.421875 -12.046875 L 1.765625 -12.765625 L 3.875 -3.578125 L 8.390625 -4.609375 L 8.96875 -2.046875 Z M 1.265625 -0.296875 "/></g></g></g><g fill="rgb(14.509583%, 14.509583%, 14.509583%)" fill-opacity="1"><g transform="translate(215.160305, 282.733974)"><g><path d="M 8.015625 -2.703125 L 1.234375 -0.421875 L -2.609375 -11.84375 L 4.171875 -14.125 L 5 -11.640625 L 1.3125 -10.390625 L 1.921875 -8.609375 L 5.34375 -9.765625 L 6.171875 -7.265625 L 2.75 -6.109375 L 3.484375 -3.96875 L 7.171875 -5.21875 Z M 8.015625 -2.703125 "/></g></g></g><g fill="rgb(14.509583%, 14.509583%, 14.509583%)" fill-opacity="1"><g transform="translate(224.836828, 279.658646)"><g><path d="M 5.859375 -2.90625 L -0.171875 -9.578125 L -0.25 -9.546875 C 0.507812 -8.273438 1.066406 -7.273438 1.421875 -6.546875 L 3.75 -1.859375 L 1.15625 -0.578125 L -4.1875 -11.375 L -0.296875 -13.296875 L 5.765625 -6.765625 L 5.8125 -6.78125 L 4.21875 -15.53125 L 8.109375 -17.46875 L 13.453125 -6.671875 L 10.78125 -5.34375 L 8.4375 -10.078125 C 8.3125 -10.316406 8.179688 -10.585938 8.046875 -10.890625 C 7.910156 -11.203125 7.578125 -11.953125 7.046875 -13.140625 L 6.984375 -13.109375 L 8.65625 -4.28125 Z M 5.859375 -2.90625 "/></g></g></g><g fill="rgb(14.509583%, 14.509583%, 14.509583%)" fill-opacity="1"><g transform="translate(240.225479, 271.784245)"><g><path d="M 7.125 -4.984375 L 5.34375 -6.484375 L 2.140625 -4.25 L 2.9375 -2.046875 L 0 0 L -3.6875 -12.15625 L -0.140625 -14.640625 L 10.046875 -7.015625 Z M 3.265625 -8.28125 L 1.703125 -9.609375 C 1.347656 -9.898438 0.898438 -10.28125 0.359375 -10.75 C -0.179688 -11.21875 -0.5625 -11.566406 -0.78125 -11.796875 C -0.65625 -11.535156 -0.46875 -11.097656 -0.21875 -10.484375 C 0.0195312 -9.878906 0.484375 -8.65625 1.171875 -6.8125 Z M 3.265625 -8.28125 "/></g></g></g><g fill="rgb(14.509583%, 14.509583%, 14.509583%)" fill-opacity="1"><g transform="translate(251.009032, 264.243771)"><g><path d="M 9.359375 -8.6875 L 6.234375 -5.78125 L -2.765625 -9.015625 L -2.828125 -8.96875 C -1.835938 -8.050781 -1.109375 -7.335938 -0.640625 -6.828125 L 3.0625 -2.84375 L 0.953125 -0.875 L -7.25 -9.703125 L -4.140625 -12.609375 L 4.78125 -9.453125 L 4.8125 -9.484375 C 3.925781 -10.328125 3.238281 -11.015625 2.75 -11.546875 L -0.96875 -15.546875 L 1.15625 -17.515625 Z M 9.359375 -8.6875 "/></g></g></g><g fill="rgb(14.509583%, 14.509583%, 14.509583%)" fill-opacity="1"><g transform="translate(261.897363, 253.962236)"><g><path d="M 2.40625 -12.90625 C 3.96875 -11.632812 4.816406 -10.222656 4.953125 -8.671875 C 5.097656 -7.128906 4.539062 -5.582031 3.28125 -4.03125 L 0.8125 -1 L -8.53125 -8.609375 L -5.890625 -11.84375 C -4.671875 -13.351562 -3.34375 -14.203125 -1.90625 -14.390625 C -0.476562 -14.578125 0.957031 -14.082031 2.40625 -12.90625 Z M 0.359375 -10.21875 C -0.492188 -10.914062 -1.265625 -11.265625 -1.953125 -11.265625 C -2.648438 -11.265625 -3.28125 -10.914062 -3.84375 -10.21875 L -4.4375 -9.5 L 0.796875 -5.234375 L 1.25 -5.78125 C 1.875 -6.550781 2.109375 -7.296875 1.953125 -8.015625 C 1.804688 -8.734375 1.273438 -9.46875 0.359375 -10.21875 Z M 0.359375 -10.21875 "/></g></g></g><g fill="rgb(14.509583%, 14.509583%, 14.509583%)" fill-opacity="1"><g transform="translate(270.074164, 243.708325)"><g><path d="M 4.5625 -7.125 L 0.703125 -1.09375 L -9.4375 -7.578125 L -5.578125 -13.609375 L -3.390625 -12.203125 L -5.5 -8.921875 L -3.90625 -7.90625 L -1.953125 -10.953125 L 0.265625 -9.546875 L -1.6875 -6.5 L 0.21875 -5.28125 L 2.328125 -8.5625 Z M 4.5625 -7.125 "/></g></g></g><path fill="rgb(99.609375%, 100%, 99.609375%)" d="M 271.503906 192.382812 C 271.269531 192.460938 271.023438 192.5 270.773438 192.480469 C 270.574219 192.46875 270.382812 192.421875 270.203125 192.339844 C 269.847656 192.179688 269.582031 191.90625 269.386719 191.589844 C 269.320312 191.5625 269.253906 191.535156 269.1875 191.507812 C 269.382812 192.0625 269.75 192.601562 270.320312 192.859375 C 270.515625 192.949219 270.71875 192.996094 270.933594 193.011719 C 271.414062 193.042969 271.875 192.890625 272.28125 192.648438 C 272.015625 192.558594 271.757812 192.472656 271.503906 192.382812 " fill-opacity="1" fill-rule="evenodd"/><path fill="rgb(99.609375%, 100%, 99.609375%)" d="M 286.550781 186.546875 C 288.882812 186.246094 289.5 188.808594 288.972656 190.789062 C 290.609375 189.636719 293.296875 187.867188 296.035156 187.167969 C 296.082031 186.6875 296.179688 185.894531 296.457031 185.144531 C 296.859375 184.0625 297.703125 183.238281 298.898438 184.019531 C 297.714844 183.46875 297.078125 184.148438 296.6875 185.289062 C 296.429688 186.035156 296.335938 186.816406 296.371094 187.304688 C 293.175781 188.617188 290.039062 190.554688 287.761719 192.675781 C 288.964844 189.933594 289.054688 187.179688 286.550781 186.546875 " fill-opacity="1" fill-rule="evenodd"/><path fill="rgb(99.609375%, 100%, 99.609375%)" d="M 286.550781 186.546875 C 288.882812 186.246094 289.5 188.808594 288.972656 190.789062 C 290.785156 189.511719 293.105469 187.902344 296.371094 187.304688 C 292.816406 188.664062 290.207031 190.398438 287.761719 192.675781 C 288.964844 189.933594 289.054688 187.179688 286.550781 186.546875 " fill-opacity="1" fill-rule="evenodd"/><path fill="rgb(99.609375%, 100%, 99.609375%)" d="M 283.3125 185.285156 C 279.554688 188.199219 278.558594 187.808594 273.9375 187.070312 L 268.601562 186.089844 L 274.015625 186.644531 C 278.441406 187.304688 279.320312 187.71875 283.3125 185.285156 " fill-opacity="1" fill-rule="evenodd"/><path fill="rgb(99.609375%, 100%, 99.609375%)" d="M 281.042969 185.398438 C 280.878906 185.753906 280.578125 186.003906 280.214844 186.226562 C 279.945312 186.394531 279.597656 186.527344 279.0625 186.585938 C 277.058594 186.796875 276.066406 186.261719 274.796875 186.113281 C 276.058594 186.007812 277.628906 186.558594 278.828125 186.335938 C 279.082031 186.289062 279.296875 186.222656 279.445312 186.128906 C 279.765625 185.933594 280.03125 185.707031 280.179688 185.394531 L 280.191406 185.367188 C 280.140625 185.359375 280.089844 185.347656 280.03125 185.339844 C 278.484375 185.09375 277.292969 185.0625 276.464844 185.222656 C 277.316406 184.988281 278.582031 184.972656 280.265625 185.203125 C 280.292969 185.132812 280.320312 185.066406 280.335938 185.007812 C 280.199219 184.925781 279.957031 184.878906 279.589844 184.835938 C 278.046875 184.648438 276.871094 184.664062 276.054688 184.855469 C 276.972656 184.5625 278.402344 184.515625 280.34375 184.75 L 280.363281 184.753906 C 280.324219 184.53125 280.042969 184.46875 279.433594 184.417969 C 277.835938 184.292969 276.625 184.359375 275.796875 184.589844 C 276.726562 184.253906 278.195312 184.140625 280.203125 184.300781 C 281.320312 184.386719 281.453125 184.519531 281.042969 185.398438 " fill-opacity="1" fill-rule="evenodd"/><path fill="rgb(99.609375%, 100%, 99.609375%)" d="M 297.484375 182.441406 C 293.980469 181.660156 287.832031 181.761719 284.75 182.289062 L 284.789062 181.8125 C 287.859375 181.398438 293.992188 181.523438 297.484375 182.441406 " fill-opacity="1" fill-rule="evenodd"/><path fill="rgb(99.609375%, 100%, 99.609375%)" d="M 285.382812 182.191406 C 285.160156 182.207031 284.976562 182.273438 284.75 182.289062 C 283.210938 180.488281 284.492188 178.230469 287.785156 178.085938 C 291.238281 177.933594 294.46875 180.101562 296.355469 182.128906 C 293.964844 180.296875 291.890625 178.433594 288.25 178.621094 C 285.714844 178.75 283.832031 180.183594 285.382812 182.191406 " fill-opacity="1" fill-rule="evenodd"/><path fill="rgb(99.609375%, 100%, 99.609375%)" d="M 286.730469 186.835938 C 286.65625 186.832031 286.585938 186.835938 286.511719 186.839844 C 286.671875 186.851562 286.828125 186.890625 286.96875 186.960938 C 287.414062 187.179688 287.691406 187.652344 287.835938 188.144531 C 287.9375 188.480469 287.980469 188.84375 287.988281 189.210938 C 287.992188 189.578125 287.953125 189.953125 287.882812 190.3125 C 287.796875 190.757812 287.65625 191.210938 287.464844 191.636719 C 287.269531 192.066406 287.023438 192.472656 286.730469 192.820312 C 286.507812 193.085938 286.242188 193.332031 285.949219 193.507812 C 285.652344 193.683594 285.332031 193.789062 285.003906 193.765625 C 284.832031 193.753906 284.667969 193.710938 284.515625 193.628906 C 284.0625 193.382812 283.792969 192.867188 283.65625 192.339844 C 283.59375 192.09375 283.558594 191.832031 283.546875 191.570312 C 283.535156 191.980469 283.574219 192.386719 283.671875 192.769531 C 283.816406 193.34375 284.109375 193.902344 284.601562 194.164062 C 284.765625 194.253906 284.941406 194.304688 285.128906 194.316406 C 285.480469 194.339844 285.828125 194.226562 286.144531 194.035156 C 286.460938 193.847656 286.75 193.578125 286.988281 193.292969 C 287.308594 192.917969 287.570312 192.476562 287.78125 192.011719 C 287.984375 191.550781 288.136719 191.058594 288.230469 190.578125 C 288.304688 190.191406 288.34375 189.785156 288.335938 189.386719 C 288.332031 188.992188 288.28125 188.605469 288.171875 188.242188 C 288.015625 187.710938 287.714844 187.199219 287.234375 186.964844 C 287.078125 186.886719 286.90625 186.84375 286.730469 186.835938 " fill-opacity="1" fill-rule="evenodd"/><path fill="rgb(99.609375%, 100%, 99.609375%)" d="M 287.089844 186.972656 C 287.207031 187.027344 287.316406 187.09375 287.414062 187.175781 C 287.3125 187.519531 287.214844 187.855469 287.117188 188.179688 C 286.9375 188.78125 286.769531 189.355469 286.605469 189.910156 C 286.9375 189.902344 287.273438 189.898438 287.605469 189.894531 C 287.832031 189.890625 288.054688 189.886719 288.28125 189.882812 C 288.261719 190.214844 288.210938 190.558594 288.132812 190.902344 C 287.882812 190.957031 287.632812 191.011719 287.382812 191.066406 C 287.242188 191.097656 287.097656 191.128906 286.953125 191.160156 C 286.863281 191.484375 286.664062 191.78125 286.421875 191.882812 C 286.425781 192.085938 286.433594 192.289062 286.4375 192.488281 C 286.445312 192.867188 286.457031 193.238281 286.464844 193.597656 C 286.273438 193.722656 286.074219 193.816406 285.878906 193.875 C 285.824219 193.546875 285.765625 193.210938 285.707031 192.863281 C 285.65625 192.554688 285.601562 192.238281 285.550781 191.914062 C 285.507812 191.902344 285.46875 191.882812 285.433594 191.863281 C 285.195312 192.082031 284.964844 192.296875 284.738281 192.507812 C 284.484375 192.746094 284.234375 192.972656 283.992188 193.203125 C 283.863281 193.023438 283.757812 192.816406 283.667969 192.585938 C 283.898438 192.300781 284.132812 192.007812 284.371094 191.710938 C 284.574219 191.457031 284.785156 191.199219 284.996094 190.9375 C 284.984375 191.289062 285.089844 191.578125 285.277344 191.714844 C 285.039062 191.34375 285.082031 190.828125 285.265625 190.410156 C 285.445312 190 285.765625 189.679688 286.085938 189.699219 C 286.21875 189.707031 286.316406 189.773438 286.40625 189.855469 C 286.503906 189.941406 286.601562 190.027344 286.695312 190.113281 C 286.566406 189.972656 286.359375 189.804688 286.25 189.703125 C 286.171875 189.628906 286.078125 189.585938 285.964844 189.578125 C 285.578125 189.558594 285.160156 190.03125 285.03125 190.640625 C 285.03125 190.644531 285.03125 190.652344 285.027344 190.65625 C 284.839844 190.410156 284.648438 190.15625 284.453125 189.902344 C 284.269531 189.660156 284.085938 189.414062 283.894531 189.164062 C 284.039062 188.832031 284.210938 188.523438 284.398438 188.246094 C 284.59375 188.433594 284.789062 188.621094 284.984375 188.808594 C 285.253906 189.066406 285.519531 189.320312 285.777344 189.570312 C 285.972656 189.023438 286.175781 188.457031 286.390625 187.867188 C 286.507812 187.539062 286.625 187.203125 286.75 186.863281 C 286.863281 186.882812 286.980469 186.917969 287.089844 186.972656 Z M 286.714844 191.210938 C 286.816406 190.964844 286.859375 190.511719 286.628906 190.394531 C 286.761719 190.605469 286.585938 191.082031 286.460938 191.269531 C 286.371094 191.402344 286.238281 191.523438 286.082031 191.5 C 286.144531 191.644531 286.269531 191.6875 286.394531 191.621094 C 286.550781 191.542969 286.652344 191.378906 286.714844 191.210938 " fill-opacity="1" fill-rule="evenodd"/><path fill="rgb(99.609375%, 100%, 99.609375%)" d="M 298.140625 183.980469 C 298.105469 183.984375 298.070312 183.988281 298.035156 183.996094 C 298.113281 183.992188 298.191406 184.003906 298.265625 184.035156 C 298.492188 184.128906 298.652344 184.371094 298.75 184.628906 C 298.882812 184.972656 298.917969 185.378906 298.890625 185.761719 C 298.855469 186.230469 298.722656 186.714844 298.484375 187.097656 C 298.308594 187.382812 298.042969 187.648438 297.734375 187.664062 C 297.65625 187.667969 297.574219 187.65625 297.5 187.625 C 297.269531 187.527344 297.109375 187.289062 297.011719 187.03125 C 296.964844 186.910156 296.933594 186.78125 296.90625 186.648438 C 296.929688 186.855469 296.976562 187.058594 297.046875 187.246094 C 297.152344 187.523438 297.324219 187.78125 297.570312 187.882812 C 297.652344 187.917969 297.738281 187.929688 297.824219 187.925781 C 298.15625 187.910156 298.441406 187.625 298.632812 187.316406 C 298.886719 186.90625 299.03125 186.382812 299.066406 185.878906 C 299.097656 185.46875 299.058594 185.03125 298.917969 184.660156 C 298.8125 184.382812 298.640625 184.125 298.394531 184.023438 C 298.3125 183.988281 298.226562 183.976562 298.140625 183.980469 " fill-opacity="1" fill-rule="evenodd"/><path fill="rgb(99.609375%, 100%, 99.609375%)" d="M 298.308594 184.035156 C 298.367188 184.058594 298.421875 184.089844 298.476562 184.128906 C 298.445312 184.320312 298.417969 184.503906 298.390625 184.6875 C 298.339844 185.011719 298.292969 185.324219 298.246094 185.625 C 298.402344 185.601562 298.5625 185.582031 298.71875 185.558594 C 298.824219 185.546875 298.929688 185.53125 299.035156 185.519531 C 299.042969 185.691406 299.035156 185.871094 299.015625 186.050781 L 298.675781 186.175781 L 298.480469 186.25 C 298.457031 186.417969 298.382812 186.578125 298.273438 186.644531 L 298.316406 186.949219 C 298.339844 187.136719 298.367188 187.320312 298.390625 187.5 C 298.308594 187.570312 298.222656 187.625 298.136719 187.667969 C 298.089844 187.507812 298.046875 187.347656 298 187.179688 C 297.957031 187.027344 297.914062 186.871094 297.871094 186.707031 C 297.847656 186.707031 297.832031 186.699219 297.8125 186.691406 L 297.527344 187.054688 C 297.425781 187.1875 297.324219 187.316406 297.222656 187.445312 C 297.152344 187.363281 297.089844 187.265625 297.03125 187.152344 C 297.121094 186.996094 297.214844 186.835938 297.304688 186.671875 C 297.386719 186.53125 297.464844 186.390625 297.550781 186.242188 C 297.566406 186.421875 297.632812 186.566406 297.730469 186.625 L 297.722656 186.617188 C 297.484375 186.3125 297.652344 185.5625 297.988281 185.542969 C 298.074219 185.539062 298.136719 185.59375 298.195312 185.640625 L 298.300781 185.722656 C 298.234375 185.660156 298.125 185.582031 298.066406 185.535156 C 298.027344 185.5 297.976562 185.484375 297.925781 185.484375 C 297.738281 185.496094 297.570312 185.765625 297.546875 186.089844 L 297.546875 186.097656 C 297.441406 185.980469 297.335938 185.859375 297.226562 185.738281 C 297.125 185.621094 297.019531 185.503906 296.910156 185.382812 C 296.957031 185.199219 297.019531 185.023438 297.089844 184.867188 L 297.410156 185.132812 C 297.554688 185.257812 297.695312 185.375 297.835938 185.492188 C 297.894531 185.195312 297.957031 184.882812 298.023438 184.558594 C 298.058594 184.375 298.097656 184.1875 298.136719 183.996094 C 298.195312 184 298.25 184.011719 298.308594 184.035156 Z M 298.375 186.289062 C 298.398438 186.164062 298.410156 185.925781 298.285156 185.875 C 298.371094 186 298.289062 186.476562 298.09375 186.46875 C 298.183594 186.632812 298.328125 186.476562 298.375 186.289062 " fill-opacity="1" fill-rule="evenodd"/><path fill="rgb(99.609375%, 100%, 99.609375%)" d="M 288.925781 187.574219 C 289.589844 188.148438 289.769531 188.960938 289.785156 189.359375 C 290.390625 188.933594 291.378906 188.578125 292.472656 188.378906 C 291.28125 188.835938 290.167969 189.476562 289.347656 190.238281 C 289.484375 189.503906 289.367188 188.105469 288.925781 187.574219 " fill-opacity="1" fill-rule="evenodd"/><g clip-path="url(#id25)"><path fill="rgb(99.609375%, 100%, 99.609375%)" d="M 299.730469 185.941406 C 300.164062 185.386719 300.582031 184.75 300.4375 184.199219 C 300.109375 182.949219 296.546875 182.390625 295.382812 182.273438 C 291.925781 181.925781 287.242188 181.878906 284.75 182.289062 L 284.789062 181.8125 C 287.273438 181.480469 291.890625 181.484375 295.386719 181.972656 C 296.652344 182.152344 300.488281 182.761719 300.691406 184.21875 C 300.777344 184.839844 300.222656 185.5 299.730469 185.941406 " fill-opacity="1" fill-rule="evenodd"/></g><path fill="rgb(99.609375%, 100%, 99.609375%)" d="M 295.230469 181.035156 C 295.246094 180.925781 295.289062 180.621094 295.324219 180.527344 C 295.367188 180.429688 295.472656 180.367188 295.585938 180.378906 C 296.21875 180.441406 296.769531 180.628906 297.242188 180.933594 C 297.339844 181 297.375 181.113281 297.332031 181.214844 C 297.238281 181.433594 297.125 181.609375 296.988281 181.734375 C 296.945312 181.777344 296.890625 181.796875 296.832031 181.800781 C 296.632812 181.8125 296.425781 181.8125 296.210938 181.800781 C 296.335938 181.804688 296.46875 181.789062 296.585938 181.78125 C 296.640625 181.777344 296.683594 181.757812 296.722656 181.722656 C 296.835938 181.617188 296.921875 181.480469 297 181.292969 C 297.039062 181.207031 297.007812 181.109375 296.925781 181.054688 C 296.519531 180.792969 296.050781 180.632812 295.507812 180.578125 C 295.433594 180.574219 295.363281 180.582031 295.324219 180.710938 C 295.3125 180.75 295.285156 181.003906 295.28125 181.070312 C 295.277344 181.113281 295.242188 181.082031 295.230469 181.035156 " fill-opacity="1" fill-rule="evenodd"/><path fill="rgb(99.609375%, 100%, 99.609375%)" d="M 294.90625 181.671875 C 295.078125 181.691406 295.25 181.714844 295.425781 181.742188 C 295.433594 181.742188 295.441406 181.742188 295.449219 181.742188 C 293.289062 180.074219 291.390625 178.699219 288.261719 178.855469 C 287.582031 178.890625 286.855469 179.027344 286.246094 179.320312 C 286.03125 179.421875 285.820312 179.550781 285.636719 179.703125 C 285.757812 179.625 285.886719 179.554688 286.015625 179.492188 C 286.628906 179.199219 287.351562 179.0625 288.035156 179.027344 C 291.007812 178.875 292.867188 180.113281 294.90625 181.671875 Z M 294.472656 181.613281 C 293.066406 180.464844 291.613281 179.570312 289.71875 179.253906 C 291.308594 179.664062 292.589844 180.496094 293.835938 181.53125 L 294.472656 181.613281 " fill-opacity="1" fill-rule="evenodd"/><path fill="rgb(99.609375%, 100%, 99.609375%)" d="M 268.050781 191.09375 C 269.515625 191.585938 279.480469 194.09375 281.613281 193.714844 C 281.042969 192.011719 281.097656 189.371094 282.40625 187.601562 C 283.789062 185.730469 285.980469 185.386719 288.050781 185.484375 C 290.839844 185.613281 293.632812 186.46875 296.0625 184.851562 C 293.777344 186.804688 290.882812 185.984375 288.199219 185.863281 C 286.273438 185.777344 284.457031 186.050781 283.050781 187.976562 C 281.679688 189.851562 282.300781 193.441406 282.710938 194.445312 C 278.5 195.160156 270.214844 192.105469 268.050781 191.09375 " fill-opacity="1" fill-rule="evenodd"/><path fill="rgb(99.609375%, 100%, 99.609375%)" d="M 274.371094 192.359375 L 274.070312 192.285156 C 274.085938 192.085938 274.097656 191.886719 274.113281 191.6875 C 274.117188 191.65625 274.117188 191.628906 274.121094 191.597656 L 273.792969 191.507812 L 271.089844 190.769531 L 273.847656 191.335938 C 274.042969 191.375 274.242188 191.417969 274.441406 191.457031 C 274.433594 191.542969 274.425781 191.632812 274.417969 191.71875 L 274.371094 192.359375 " fill-opacity="1" fill-rule="evenodd"/><path fill="rgb(99.609375%, 100%, 99.609375%)" d="M 288.632812 178.09375 C 284.34375 177.8125 276.867188 177.464844 272.34375 180.6875 C 276.691406 176.917969 283.640625 177.550781 288.632812 178.09375 " fill-opacity="1" fill-rule="evenodd"/><g clip-path="url(#id26)"><path fill="rgb(99.609375%, 100%, 99.609375%)" d="M 283.851562 196.070312 L 285.929688 194.601562 L 282.484375 196.332031 C 283.382812 195.777344 284.289062 195.226562 285.203125 194.683594 C 285.617188 194.6875 286.007812 194.554688 286.355469 194.34375 C 286.71875 194.128906 287.035156 193.832031 287.296875 193.519531 C 287.476562 193.308594 287.636719 193.078125 287.78125 192.84375 C 291.070312 191.136719 294.46875 189.460938 297.496094 188.070312 C 297.574219 188.101562 297.660156 188.121094 297.746094 188.125 C 293.054688 190.578125 288.4375 193.25 283.851562 196.070312 Z M 298.769531 187.492188 C 299.292969 187.257812 299.804688 187.03125 300.296875 186.820312 C 299.746094 187.097656 299.191406 187.378906 298.640625 187.660156 C 298.6875 187.605469 298.730469 187.550781 298.769531 187.492188 Z M 285.179688 194.683594 C 283.277344 195.730469 281.488281 196.742188 279.933594 197.652344 L 283.949219 195.09375 L 278.539062 197.917969 C 280.308594 196.878906 282.363281 195.726562 284.546875 194.550781 C 284.722656 194.625 284.90625 194.667969 285.101562 194.679688 C 285.125 194.683594 285.152344 194.683594 285.179688 194.683594 " fill-opacity="1" fill-rule="evenodd"/></g><g clip-path="url(#id27)"><path fill="rgb(99.609375%, 100%, 99.609375%)" d="M 269.285156 194.859375 L 271.359375 193.390625 L 267.914062 195.125 C 268.875 194.53125 269.839844 193.945312 270.8125 193.367188 C 270.84375 193.371094 270.875 193.375 270.90625 193.375 C 271.308594 193.402344 271.699219 193.324219 272.0625 193.171875 C 271.136719 193.730469 270.210938 194.292969 269.285156 194.859375 Z M 270.804688 193.367188 C 268.832031 194.453125 266.972656 195.503906 265.367188 196.445312 L 269.382812 193.886719 L 263.972656 196.707031 C 265.800781 195.632812 267.941406 194.4375 270.214844 193.21875 C 270.402344 193.296875 270.601562 193.34375 270.804688 193.367188 " fill-opacity="1" fill-rule="evenodd"/></g><g clip-path="url(#id28)"><path fill="rgb(99.609375%, 100%, 99.609375%)" d="M 86.929688 183.691406 C 87.226562 183.644531 87.527344 183.589844 87.828125 183.585938 C 86.957031 183.71875 86.09375 183.925781 85.273438 184.234375 C 84.515625 184.519531 83.796875 184.910156 83.148438 185.390625 C 82.546875 185.828125 82.007812 186.339844 81.433594 186.816406 C 80.789062 187.335938 80.085938 187.785156 79.359375 188.183594 C 77.796875 189.039062 76.128906 189.691406 74.429688 190.234375 C 73.699219 190.464844 72.960938 190.679688 72.210938 190.863281 C 72.101562 190.886719 71.996094 190.925781 71.882812 190.933594 C 72.308594 190.832031 72.726562 190.703125 73.144531 190.582031 C 74.925781 190.046875 76.675781 189.40625 78.328125 188.566406 C 79.496094 187.972656 80.617188 187.273438 81.597656 186.414062 C 81.832031 186.21875 82.042969 185.996094 82.277344 185.800781 C 83.589844 184.695312 85.230469 183.992188 86.929688 183.691406 Z M 86.929688 183.691406 " fill-opacity="1" fill-rule="nonzero"/></g><g clip-path="url(#id29)"><path fill="rgb(99.609375%, 100%, 99.609375%)" d="M 91.058594 183.828125 C 92.945312 183.707031 94.839844 183.847656 96.710938 184.105469 C 97.199219 184.144531 97.65625 184.324219 98.117188 184.476562 C 99.558594 184.957031 100.984375 185.488281 102.367188 186.113281 C 101.1875 186.007812 100 185.976562 98.816406 185.972656 C 97.398438 185.964844 95.980469 186.007812 94.566406 186.074219 C 94.226562 186.09375 93.886719 186.101562 93.554688 186.042969 C 93.289062 185.996094 93.027344 185.898438 92.820312 185.726562 C 92.257812 185.234375 91.722656 184.707031 91.113281 184.269531 C 91.007812 184.1875 90.878906 184.132812 90.804688 184.019531 C 90.773438 183.984375 90.769531 183.921875 90.8125 183.894531 C 90.882812 183.84375 90.972656 183.835938 91.058594 183.828125 Z M 91.058594 183.828125 " fill-opacity="1" fill-rule="nonzero"/></g><path fill="rgb(99.609375%, 100%, 99.609375%)" d="M 88.035156 184.160156 C 88.519531 184.113281 89.011719 184.136719 89.476562 184.269531 C 90.097656 184.441406 90.660156 184.789062 91.113281 185.230469 C 91.496094 185.601562 91.808594 186.03125 92.066406 186.488281 C 90.203125 186.5625 88.335938 186.628906 86.472656 186.707031 C 86.214844 186.160156 85.882812 185.644531 85.449219 185.222656 C 85.375 185.148438 85.277344 185.089844 85.246094 184.988281 C 85.238281 184.90625 85.332031 184.871094 85.390625 184.84375 C 85.707031 184.714844 86.03125 184.605469 86.355469 184.507812 C 86.90625 184.347656 87.464844 184.214844 88.035156 184.160156 Z M 88.035156 184.160156 " fill-opacity="1" fill-rule="nonzero"/><path fill="rgb(99.609375%, 100%, 99.609375%)" d="M 84.386719 185.296875 C 84.507812 185.238281 84.628906 185.152344 84.769531 185.148438 C 84.878906 185.160156 84.960938 185.238281 85.042969 185.300781 C 85.285156 185.511719 85.46875 185.769531 85.648438 186.03125 C 85.746094 186.179688 85.839844 186.332031 85.925781 186.488281 C 85.953125 186.542969 85.988281 186.613281 85.957031 186.675781 C 85.914062 186.742188 85.828125 186.734375 85.757812 186.734375 C 85.246094 186.726562 84.734375 186.738281 84.222656 186.75 C 83.734375 186.773438 83.242188 186.796875 82.757812 186.875 C 82.582031 186.90625 82.40625 186.9375 82.242188 187.011719 C 82.613281 186.390625 83.195312 185.914062 83.835938 185.566406 C 84.015625 185.46875 84.203125 185.382812 84.386719 185.296875 Z M 84.386719 185.296875 " fill-opacity="1" fill-rule="nonzero"/><path fill="rgb(99.609375%, 100%, 99.609375%)" d="M 96.25 186.382812 C 97.367188 186.355469 98.484375 186.328125 99.601562 186.277344 C 100.808594 186.238281 102.015625 186.253906 103.21875 186.363281 C 104.253906 186.453125 105.292969 186.558594 106.328125 186.691406 C 106.871094 186.761719 107.417969 186.839844 107.957031 186.945312 C 108.753906 187.097656 109.5625 187.25 110.3125 187.570312 C 110.539062 187.667969 110.757812 187.777344 110.96875 187.90625 C 110.542969 187.746094 110.105469 187.609375 109.660156 187.527344 C 109.46875 187.488281 109.273438 187.472656 109.082031 187.433594 C 108.867188 187.417969 108.648438 187.4375 108.433594 187.433594 C 107.757812 187.4375 107.082031 187.457031 106.414062 187.546875 C 106.328125 187.5625 106.226562 187.578125 106.171875 187.652344 C 106.125 187.726562 106.160156 187.816406 106.195312 187.890625 C 106.425781 188.289062 106.632812 188.699219 106.847656 189.105469 C 106.996094 189.390625 107.148438 189.675781 107.292969 189.964844 C 106.707031 189.054688 105.902344 188.285156 104.964844 187.722656 C 104.804688 187.625 104.640625 187.535156 104.472656 187.457031 C 104.242188 187.351562 103.992188 187.296875 103.742188 187.257812 C 103.261719 187.199219 102.785156 187.097656 102.308594 187.019531 C 100.023438 186.636719 97.710938 186.410156 95.394531 186.40625 C 95.679688 186.386719 95.964844 186.390625 96.25 186.382812 Z M 96.25 186.382812 " fill-opacity="1" fill-rule="nonzero"/><path fill="rgb(99.609375%, 100%, 99.609375%)" d="M 101.945312 187.617188 C 102.308594 187.691406 102.671875 187.816406 102.949219 188.0625 C 103.109375 188.203125 103.230469 188.386719 103.28125 188.59375 C 103.316406 188.726562 103.296875 188.875 103.210938 188.988281 C 103.109375 189.128906 102.945312 189.207031 102.78125 189.261719 C 102.929688 189.148438 103.085938 189.023438 103.148438 188.84375 C 103.207031 188.675781 103.152344 188.492188 103.046875 188.355469 C 102.882812 188.136719 102.648438 187.980469 102.414062 187.84375 C 102.261719 187.757812 102.105469 187.679688 101.945312 187.617188 Z M 101.945312 187.617188 " fill-opacity="1" fill-rule="nonzero"/><path fill="rgb(99.609375%, 100%, 99.609375%)" d="M 108.894531 187.613281 C 108.996094 187.601562 109.097656 187.597656 109.199219 187.609375 C 109.675781 187.703125 110.160156 187.78125 110.621094 187.929688 C 110.757812 187.972656 110.894531 188.027344 111.003906 188.117188 C 111.152344 188.230469 111.246094 188.394531 111.308594 188.566406 C 111.414062 188.875 111.527344 189.179688 111.605469 189.492188 C 111.636719 189.628906 111.671875 189.777344 111.597656 189.90625 C 111.558594 189.988281 111.460938 190.03125 111.367188 190.023438 C 110.457031 189.957031 109.542969 189.921875 108.628906 189.90625 C 108.394531 189.898438 108.152344 189.929688 107.929688 189.851562 C 107.675781 189.769531 107.492188 189.5625 107.34375 189.355469 C 107.097656 189.011719 106.878906 188.648438 106.675781 188.277344 C 106.613281 188.152344 106.554688 188.007812 106.59375 187.867188 C 106.621094 187.765625 106.734375 187.71875 106.835938 187.710938 C 107.519531 187.648438 108.210938 187.648438 108.894531 187.613281 Z M 108.894531 187.613281 " fill-opacity="1" fill-rule="nonzero"/><path fill="rgb(99.609375%, 100%, 99.609375%)" d="M 101.382812 187.636719 C 101.738281 187.609375 102.074219 187.765625 102.375 187.941406 C 102.566406 188.054688 102.75 188.1875 102.878906 188.367188 C 102.984375 188.511719 103.039062 188.699219 103.003906 188.875 C 102.953125 189.035156 102.804688 189.148438 102.644531 189.195312 C 102.441406 189.253906 102.222656 189.242188 102.019531 189.207031 C 101.53125 189.113281 101.109375 188.769531 100.910156 188.328125 C 100.847656 188.195312 100.839844 188.027344 100.9375 187.910156 C 101.050781 187.777344 101.199219 187.652344 101.382812 187.636719 Z M 101.382812 187.636719 " fill-opacity="1" fill-rule="nonzero"/><path fill="rgb(99.609375%, 100%, 99.609375%)" d="M 103.710938 187.648438 C 104.0625 187.589844 104.417969 187.722656 104.703125 187.917969 C 104.886719 188.039062 105.050781 188.1875 105.199219 188.347656 C 105.339844 188.484375 105.425781 188.664062 105.472656 188.847656 C 105.507812 188.996094 105.511719 189.171875 105.410156 189.296875 C 105.292969 189.441406 105.085938 189.488281 104.90625 189.484375 C 104.417969 189.441406 103.953125 189.183594 103.664062 188.796875 C 103.558594 188.65625 103.476562 188.503906 103.410156 188.34375 C 103.359375 188.195312 103.347656 188.027344 103.410156 187.882812 C 103.460938 187.761719 103.578125 187.671875 103.710938 187.648438 Z M 103.710938 187.648438 " fill-opacity="1" fill-rule="nonzero"/><path fill="rgb(99.609375%, 100%, 99.609375%)" d="M 104.53125 187.699219 C 104.839844 187.863281 105.152344 188.035156 105.417969 188.265625 C 105.554688 188.382812 105.683594 188.515625 105.753906 188.683594 C 105.808594 188.804688 105.816406 188.953125 105.753906 189.078125 C 105.703125 189.175781 105.617188 189.253906 105.53125 189.320312 C 105.621094 189.15625 105.644531 188.960938 105.582031 188.785156 C 105.492188 188.503906 105.277344 188.277344 105.058594 188.082031 C 104.894531 187.9375 104.710938 187.820312 104.53125 187.699219 Z M 104.53125 187.699219 " fill-opacity="1" fill-rule="nonzero"/><path fill="rgb(99.609375%, 100%, 99.609375%)" d="M 111.398438 188.34375 C 111.40625 188.339844 111.425781 188.328125 111.433594 188.324219 C 111.519531 188.34375 111.585938 188.40625 111.648438 188.464844 C 111.828125 188.648438 111.957031 188.878906 112.0625 189.113281 C 112.132812 189.273438 112.210938 189.4375 112.234375 189.613281 C 112.242188 189.6875 112.25 189.777344 112.191406 189.839844 C 112.15625 189.863281 112.117188 189.832031 112.089844 189.8125 C 111.855469 189.585938 111.738281 189.277344 111.589844 188.996094 C 111.511719 188.832031 111.429688 188.671875 111.382812 188.496094 C 111.375 188.445312 111.359375 188.386719 111.398438 188.34375 Z M 111.398438 188.34375 " fill-opacity="1" fill-rule="nonzero"/><g clip-path="url(#id30)"><path fill="rgb(99.609375%, 100%, 99.609375%)" d="M 95.652344 188.898438 C 96.046875 188.828125 96.464844 188.832031 96.839844 188.976562 C 97.171875 189.097656 97.460938 189.320312 97.679688 189.585938 C 97.957031 189.921875 98.140625 190.316406 98.261719 190.726562 C 98.394531 191.175781 98.457031 191.644531 98.449219 192.113281 C 98.425781 192.527344 98.371094 192.945312 98.257812 193.347656 C 98.148438 193.722656 97.988281 194.09375 97.746094 194.40625 C 97.53125 194.683594 97.246094 194.910156 96.914062 195.046875 C 96.542969 195.199219 96.125 195.238281 95.722656 195.1875 C 96.070312 195.152344 96.417969 195.042969 96.699219 194.835938 C 97.019531 194.605469 97.25 194.277344 97.40625 193.921875 C 97.613281 193.464844 97.714844 192.972656 97.773438 192.476562 C 97.839844 191.996094 97.828125 191.507812 97.765625 191.027344 C 97.714844 190.632812 97.613281 190.234375 97.425781 189.878906 C 97.261719 189.574219 97.023438 189.296875 96.714844 189.125 C 96.398438 188.9375 96.019531 188.875 95.652344 188.898438 Z M 95.652344 188.898438 " fill-opacity="1" fill-rule="nonzero"/></g><path fill="rgb(99.609375%, 100%, 99.609375%)" d="M 82.449219 189.96875 C 82.632812 190.273438 82.828125 190.578125 83.085938 190.832031 C 83.238281 190.976562 83.410156 191.097656 83.609375 191.171875 C 83.820312 191.253906 84.042969 191.273438 84.265625 191.289062 C 86.953125 191.449219 89.640625 191.597656 92.328125 191.75 C 92.492188 191.765625 92.65625 191.757812 92.816406 191.785156 C 91.546875 191.757812 90.273438 191.746094 89 191.722656 C 87.363281 191.699219 85.726562 191.671875 84.09375 191.648438 C 83.878906 191.640625 83.664062 191.660156 83.457031 191.617188 C 83.144531 191.550781 82.902344 191.296875 82.804688 191.003906 C 82.6875 190.660156 82.558594 190.316406 82.449219 189.96875 Z M 82.449219 189.96875 " fill-opacity="1" fill-rule="nonzero"/><path fill="rgb(99.609375%, 100%, 99.609375%)" d="M 84.375 192.136719 C 84.472656 192.125 84.566406 192.101562 84.660156 192.101562 C 86.433594 192.171875 88.210938 192.234375 89.984375 192.285156 C 90.628906 192.300781 91.269531 192.320312 91.914062 192.324219 C 91.984375 192.324219 92.058594 192.332031 92.128906 192.339844 C 91.875 192.335938 91.621094 192.363281 91.367188 192.363281 C 89.753906 192.429688 88.136719 192.433594 86.523438 192.425781 C 85.25 192.417969 83.980469 192.398438 82.707031 192.367188 C 83.261719 192.285156 83.820312 192.214844 84.375 192.136719 Z M 84.375 192.136719 " fill-opacity="1" fill-rule="nonzero"/><g clip-path="url(#id31)"><path fill="rgb(99.609375%, 100%, 99.609375%)" d="M 99.292969 192.328125 C 99.308594 192.289062 99.347656 192.296875 99.382812 192.296875 C 100.335938 192.339844 101.289062 192.378906 102.242188 192.359375 C 102.390625 192.644531 102.644531 192.878906 102.957031 192.988281 C 103.15625 193.066406 103.375 193.09375 103.589844 193.085938 C 105.3125 193.191406 107.035156 193.277344 108.761719 193.253906 C 109.375 193.234375 109.988281 193.195312 110.601562 193.140625 C 111.074219 193.097656 111.550781 193.042969 112.019531 192.945312 C 112.222656 192.902344 112.421875 192.851562 112.613281 192.777344 C 112.714844 192.734375 112.816406 192.683594 112.878906 192.59375 C 112.976562 192.714844 113.019531 192.867188 113.066406 193.015625 C 113.105469 193.15625 113.078125 193.316406 112.980469 193.425781 C 112.839844 193.589844 112.628906 193.671875 112.425781 193.738281 C 112.003906 193.867188 111.558594 193.925781 111.121094 193.976562 C 109.980469 194.09375 108.835938 194.125 107.6875 194.164062 C 105.320312 194.238281 102.949219 194.167969 100.589844 193.976562 C 100.207031 193.941406 99.828125 193.90625 99.449219 193.863281 C 99.417969 193.855469 99.371094 193.859375 99.363281 193.820312 C 99.367188 193.324219 99.339844 192.824219 99.292969 192.328125 Z M 99.292969 192.328125 " fill-opacity="1" fill-rule="nonzero"/></g><g clip-path="url(#id32)"><path fill="rgb(99.609375%, 100%, 99.609375%)" d="M 97.632812 194.820312 C 98.273438 194.28125 98.601562 193.453125 98.636719 192.640625 C 98.695312 192.867188 98.691406 193.101562 98.707031 193.328125 C 98.714844 193.632812 98.726562 193.941406 98.707031 194.246094 C 98.722656 194.308594 98.800781 194.324219 98.859375 194.335938 C 99.128906 194.378906 99.40625 194.375 99.683594 194.394531 C 99.605469 194.519531 99.488281 194.617188 99.382812 194.71875 C 99.21875 194.875 99.050781 195.019531 98.875 195.160156 C 98.675781 195.316406 98.398438 195.308594 98.15625 195.335938 C 97.636719 195.375 97.109375 195.410156 96.585938 195.363281 C 96.96875 195.257812 97.328125 195.074219 97.632812 194.820312 Z M 97.632812 194.820312 " fill-opacity="1" fill-rule="nonzero"/></g><path fill="rgb(99.609375%, 100%, 99.609375%)" d="M 78.589844 193.0625 C 79.074219 193.097656 79.554688 193.15625 80.039062 193.203125 C 82.273438 193.421875 84.507812 193.628906 86.742188 193.820312 C 88.238281 193.945312 89.734375 194.066406 91.234375 194.148438 C 91.601562 194.164062 91.96875 194.191406 92.335938 194.195312 C 91.742188 194.203125 91.148438 194.1875 90.554688 194.183594 C 89.050781 194.167969 87.546875 194.15625 86.042969 194.152344 C 85.933594 194.148438 85.824219 194.15625 85.71875 194.148438 C 83.34375 193.789062 80.96875 193.417969 78.589844 193.0625 Z M 78.589844 193.0625 " fill-opacity="1" fill-rule="nonzero"/><g clip-path="url(#id33)"><path fill="rgb(99.609375%, 100%, 99.609375%)" d="M 108.980469 194.511719 C 109.445312 194.5 109.910156 194.476562 110.375 194.441406 C 110.292969 194.582031 110.160156 194.683594 110.035156 194.785156 C 109.457031 195.222656 108.75 195.519531 108.015625 195.558594 C 107.546875 195.585938 107.074219 195.496094 106.648438 195.300781 C 106.238281 195.113281 105.875 194.839844 105.5625 194.523438 C 106.703125 194.539062 107.839844 194.539062 108.980469 194.511719 Z M 108.980469 194.511719 " fill-opacity="1" fill-rule="nonzero"/></g><path fill="rgb(98.81897%, 63.919067%, 6.669617%)" d="M 187.683594 118.308594 C 149.371094 118.308594 118.308594 149.371094 118.308594 187.683594 C 118.308594 226 149.371094 257.058594 187.683594 257.058594 C 226 257.058594 257.058594 226 257.058594 187.683594 C 257.058594 149.371094 226 118.308594 187.683594 118.308594 " fill-opacity="1" fill-rule="nonzero"/><g clip-path="url(#id34)"><path fill="rgb(14.509583%, 14.509583%, 14.509583%)" d="M 187.453125 131.203125 C 156.359375 131.203125 131.203125 156.359375 131.203125 187.453125 C 131.203125 218.546875 156.359375 243.703125 187.453125 243.703125 C 218.546875 243.703125 243.703125 218.546875 243.703125 187.453125 C 243.703125 156.359375 218.546875 131.203125 187.453125 131.203125 Z M 187.453125 140.105469 C 208.792969 140.105469 226.882812 154.238281 232.679688 173.742188 C 230.132812 176.003906 225.472656 178.40625 217.554688 176.429688 C 217.554688 176.429688 196.78125 170.492188 187.453125 170.492188 C 178.125 170.492188 157.347656 176.429688 157.347656 176.429688 C 149.292969 178.40625 144.628906 176.003906 142.226562 173.742188 C 148.019531 154.238281 166.113281 140.105469 187.453125 140.105469 Z M 187.453125 201.160156 C 182.082031 201.160156 177.699219 196.78125 177.699219 191.410156 C 177.699219 186.039062 182.082031 181.65625 187.453125 181.65625 C 192.824219 181.65625 197.203125 186.039062 197.203125 191.410156 C 197.203125 196.78125 192.824219 201.160156 187.453125 201.160156 Z M 140.105469 187.453125 C 140.105469 185.191406 140.246094 182.929688 140.53125 180.808594 C 149.011719 182.648438 160.882812 191.269531 160.882812 191.269531 C 165.121094 202.574219 176.429688 210.066406 176.429688 210.066406 L 176.429688 222.503906 C 176.429688 226.460938 171.480469 232.113281 171.480469 232.113281 C 153.25 225.472656 140.105469 208.085938 140.105469 187.453125 Z M 203.28125 232.113281 C 203.28125 232.113281 198.335938 226.460938 198.335938 222.503906 L 198.335938 210.066406 C 198.335938 210.066406 209.640625 202.714844 213.882812 191.269531 C 213.882812 191.269531 225.894531 182.648438 234.234375 180.808594 C 234.515625 182.929688 234.65625 185.191406 234.65625 187.453125 C 234.796875 208.085938 221.65625 225.472656 203.28125 232.113281 Z M 203.28125 232.113281 " fill-opacity="1" fill-rule="nonzero"/></g></svg>